<?xml version="1.0" encoding="utf-8"?>
<!-- Generator: Adobe Illustrator 23.0.6, SVG Export Plug-In . SVG Version: 6.00 Build 0)  -->
<svg version="1.1" xmlns="http://www.w3.org/2000/svg" xmlns:xlink="http://www.w3.org/1999/xlink" x="0px" y="0px"
	 viewBox="0 0 278.81 230.33" style="enable-background:new 0 0 278.81 230.33;" xml:space="preserve">
<style type="text/css">
	.st0{display:none;}
	.st1{display:inline;fill:#FFFFFF;stroke:#000000;stroke-miterlimit:10;}
	.st2{fill:#FFFFFF;stroke:#000000;stroke-miterlimit:10;}
	.st3{fill:#FFFFFF;}
	.st4{fill:none;stroke:#000000;stroke-width:0.25;stroke-miterlimit:10;}
	.st5{opacity:0.8;}
	.st6{fill:none;stroke:#000000;stroke-width:0.75;stroke-miterlimit:10;}
	.st7{opacity:0.4;fill:#605C5D;}
	.st8{fill:none;stroke:#000000;stroke-miterlimit:10;}
	.st9{stroke:#000000;stroke-width:0.5;stroke-miterlimit:10;}
	.st10{display:inline;}
	.st11{fill:none;}
	.st12{opacity:0.8;fill:#606061;}
	.st13{opacity:0.8;fill:#444143;}
	.st14{fill:#787878;}
</style>
<g id="Grid" class="st0">
	<rect x="-9.48" y="-17.51" class="st1" width="297.35" height="275"/>
</g>
<g id="Sea_Lying_Down_Right">
	<g id="body">
	</g>
	<g id="eye">
		<g id="Layer_19">
		</g>
		<g id="Layer_20">
		</g>
	</g>
	<g id="Layer_21">
	</g>
	<g id="Layer_22">
	</g>
</g>
<g id="Sea_Lying_Down_Left">
	<g id="body_copy_2">
	</g>
	<g id="eye_copy">
		<g id="Layer_19_copy">
		</g>
		<g id="Layer_20_copy">
		</g>
	</g>
	<g id="Layer_21_copy">
	</g>
	<g id="Layer_22_copy_2">
	</g>
</g>
<g id="Seal_Left">
	<g id="body_1_">
	</g>
	<g id="whiskers_1_">
	</g>
	<g id="nose">
	</g>
	<g id="Eye">
	</g>
	<g id="Ear">
	</g>
	<g id="Layer_11">
	</g>
</g>
<g id="Seal_Right">
	<g id="body_copy">
	</g>
	<g id="whiskers_copy">
	</g>
	<g id="nose_copy">
	</g>
	<g id="Eye_copy">
	</g>
	<g id="Ear_copy">
	</g>
	<g id="Layer_11_copy">
	</g>
</g>
<g id="Bottling_up">
	<g id="water">
	</g>
	<g id="body_2_">
	</g>
	<g id="whiskers">
	</g>
</g>
<g id="bottle_right">
	<g id="outline_copy">
		<path class="st2" d="M71.55,150.51c0.94-1.45,15.57-25.19,17.79-29.7c2.21-4.51,6.38-7.83,9.53-9.79
			c3.15-1.96,6.81-4.43,10.21-5.46c3.4-1.03,16.26-11.22,18.3-13.52c2.04-2.3,5.19-6.55,7.4-9.62c2.21-3.06,5.53-5.96,8.6-8.68
			s5.96-1.87,8.68-1.79c2.72,0.09,2.04,0.51,2.89,1.7c0.85,1.19,1.96,2.38,5.11,2.81s3.66,1.11,4.43,2.04
			c0.77,0.94,2.98,2.98,4.43,4.17c1.45,1.19,1.62,3.66,2.81,6.3s2.72,12.17,2.72,16.17s3.32,15.91,4.51,21.02
			c1.19,5.11,5.79,13.19,5.79,13.19l4.43,7.06"/>
	</g>
	<g id="Layer_42_copy">
		<path d="M130.7,135.36c0,0-1.53-2.04-4.51-2.04s-5.45,1.02-5.45,1.02s1.02,2.21,3.83,2.38S130.7,135.36,130.7,135.36z"/>
		<g>
			<path d="M135.98,136.27c-1.59,0.5-3.37,0.25-4.83-0.55c-1.37-0.95-3.01-1.28-4.64-1.46c-1.63-0.18-3.29-0.22-4.92-0.03
				c-0.85,0.02-1.48,0.59-2.16,1.05l-2.01,1.45l1.93-1.55c0.33-0.25,0.66-0.49,1.02-0.72c0.34-0.25,0.79-0.35,1.19-0.4
				c1.65-0.22,3.32-0.21,4.97-0.05c1.63,0.21,3.33,0.59,4.69,1.56C132.65,136.36,134.37,136.68,135.98,136.27z"/>
		</g>
		<path d="M133.17,105.4c0,0,0.51,1.28,0.85,2.55c0.34,1.28,2.3,0.94,2.64,2.89c0.34,1.96-0.85,3.74-0.68,5.11s0,2.13,0,2.13
			s-1.87-0.51-1.75-2.21c0.13-1.7-0.21-2.64-1.06-4.13C132.32,110.26,133,106.85,133.17,105.4z"/>
		<path class="st5" d="M153.21,72.81c0,0-2.98,1.06-3.83,2.72s-1.28,3.06-1.79,3.57c-0.51,0.51-2.38,1.74-2.94,0.47
			s-0.55-4.3-0.55-4.3s-2.72,0.73-3.28,1.2s2.81-2.94,5.28-3.66C148.57,72.09,150.62,72.13,153.21,72.81z"/>
		<path d="M151.17,73.28c0,0-1.49-0.47-2.17,0.3c-0.68,0.77-1.62,1.83-1.7,2.04c-0.09,0.21-0.36,1.23-0.31,1.7
			c0.05,0.47,0.69-0.26,1.67-1.66C149.64,74.26,151.17,73.28,151.17,73.28z"/>
		<path d="M157.41,82.44c0.04-0.27,0.64,0.26,0.54,0.57C157.86,83.33,157.32,83.14,157.41,82.44z"/>
		<path d="M155.63,79.18c0,0,0.89-0.29,0.83,0.19c-0.06,0.48-0.83,0.26-0.83,0.26V79.18z"/>
		<path d="M160.93,79.68c0,0,0.51,0.07,0.45,0.45s-0.29,0.42-0.45,0.2S160.93,79.68,160.93,79.68z"/>
		<path d="M165.01,81.77c0,0,0.41,0.1,0.22,0.32c-0.19,0.22-0.8,0.41-0.77,0C164.5,81.67,165.01,81.77,165.01,81.77z"/>
		<path d="M164.88,85.05c0,0,0.49,0,0.41,0.32c-0.08,0.32-0.16,0.54-0.41,0.41C164.63,85.66,164.52,85.18,164.88,85.05z"/>
		<path d="M160.13,86.52c0,0,0.54-0.19,0.48,0.54c-0.06,0.73-0.22,1.02-0.48,0.73C159.87,87.51,160.13,86.52,160.13,86.52z"/>
		<path d="M158.24,92.14c0.13,0.06,0.64-0.19,0.73,0.29c0.1,0.48,0,0.61-0.37,0.48C158.24,92.78,158.24,92.14,158.24,92.14z"/>
		<path d="M162.87,93.57c0.17-0.31,0.61,0,0.51,0.22s-0.25,0.41-0.25,0.41S162.52,94.21,162.87,93.57z"/>
		<path d="M164.47,89.17c0,0,0.29-0.1,0.18,0.32c-0.11,0.41-0.47,0.86-0.59,0.57c-0.13-0.29-0.22-0.41-0.16-0.64
			S164.47,89.17,164.47,89.17z"/>
		<path d="M153.07,78.8c0,0,0.45,0.05,0.29,0.3c-0.16,0.25-0.06,0.25-0.29,0.15C152.85,79.15,153.07,78.8,153.07,78.8z"/>
		<path d="M157.22,76.56c0,0,0.42,0.54,0.18,0.57c-0.24,0.03-0.56,0.16-0.56,0S157.22,76.56,157.22,76.56z"/>
		<path d="M160.41,77.46c0,0,0.15,0.28-0.1,0.25c-0.25-0.03-0.54-0.55-0.44-0.5C159.97,77.27,160.54,76.95,160.41,77.46z"/>
		<path d="M160.96,98.62c0,0,0.77,0.06,0.77,0.45c0,0.38-0.22,0.73-0.38,0.64C161.18,99.61,160.54,99.16,160.96,98.62z"/>
		<path d="M164.27,102.7c0,0,0.35,0.06,0.19,0.45c-0.16,0.38-0.55,0.64-0.59,0.26C163.83,103.02,164.27,102.7,164.27,102.7z"/>
		<path d="M166.16,97.6c0.19,0.03,0.45,0.48,0.38,0.73s-0.13,0.22-0.38,0.29c-0.26,0.06-0.41,0-0.41-0.32
			C165.74,97.98,166.16,97.6,166.16,97.6z"/>
		<path d="M167.69,105.41c0,0,0.54,0.26,0.45,0.54c-0.1,0.29-0.45,0.64-0.45,0.64s-0.73,0-0.51-0.59S167.69,105.41,167.69,105.41z"
			/>
		<path d="M170.69,112.02c0,0,0.45,0.51,0.22,0.64c-0.22,0.13-0.77,0.03-0.7-0.32C170.28,111.99,170.69,112.02,170.69,112.02z"/>
		<path d="M171.55,108.8c0,0,0.51,0.41,0.45,0.64s-0.35,0.29-0.45,0.19C171.46,109.53,171.55,108.8,171.55,108.8z"/>
		<path d="M169.54,114.93c0,0,0.45,0.51,0,0.48c-0.45-0.03-0.54-0.03-0.54-0.24S169.54,114.93,169.54,114.93z"/>
		<g>
			<path d="M174.26,101.69c-0.33,1.67-0.8,3.29-1.28,4.9c-0.49,1.62-1.09,3.19-1.71,4.77l-0.94,2.36c-0.33,0.77-0.65,1.6-1.24,2.27
				c-0.55,0.68-1.25,1.2-1.97,1.65c-0.71,0.46-1.5,0.8-2.13,1.34l-0.05-0.05c0.62-0.6,1.38-0.98,2.05-1.49
				c0.68-0.49,1.31-1.04,1.79-1.7c0.51-0.64,0.77-1.42,1.07-2.21c0.29-0.79,0.57-1.58,0.83-2.38c0.53-1.6,1.01-3.21,1.61-4.79
				c0.6-1.58,1.19-3.15,1.9-4.69L174.26,101.69z"/>
		</g>
	</g>
	<g id="Whiskers_copy">
		<g>
			<path d="M170.21,89.14c1.21,0.06,2.4,0.35,3.56,0.69c1.16,0.36,2.26,0.9,3.31,1.49c1.07,0.58,2.06,1.29,2.98,2.06
				c0.93,0.78,1.71,1.71,2.43,2.67l-0.04,0.03c-0.77-0.92-1.59-1.79-2.55-2.51c-0.94-0.72-1.94-1.38-3.01-1.9
				c-1.06-0.53-2.18-0.95-3.29-1.37c-1.11-0.43-2.25-0.78-3.4-1.12L170.21,89.14z"/>
		</g>
		<g>
			<path d="M171.52,92.93c1.57,0.76,3.07,1.65,4.53,2.59c1.47,0.93,2.87,1.98,4.21,3.1c1.34,1.11,2.64,2.29,3.81,3.59
				c1.16,1.3,2.26,2.7,2.88,4.36l-0.01-0.02c0.63,0.98,1.16,2.02,1.55,3.11l-0.05,0.02c-0.43-1.07-0.98-2.09-1.64-3.04l-0.01-0.01
				l0-0.01c-0.67-1.59-1.79-2.95-2.96-4.2c-1.19-1.25-2.49-2.39-3.86-3.45c-2.74-2.1-5.58-4.08-8.48-6L171.52,92.93z"/>
		</g>
		<g>
			<path d="M168.17,96.43c3.29,3.31,6.46,6.74,9.69,10.11c3.17,3.42,6.32,6.87,9.42,10.36c1.55,1.74,3.11,3.48,4.64,5.25
				c0.76,0.89,1.53,1.76,2.24,2.71c0.7,0.95,1.22,2.02,1.7,3.08c0.95,2.14,1.7,4.36,2.32,6.62c0.61,2.25,1.1,4.55,1.23,6.89l-0.05,0
				c-0.17-2.33-0.69-4.61-1.32-6.85c-0.65-2.24-1.43-4.44-2.4-6.55c-0.49-1.05-1.01-2.1-1.71-3.02c-0.7-0.91-1.49-1.79-2.25-2.66
				c-1.54-1.75-3.12-3.47-4.69-5.2l-9.49-10.29c-3.11-3.48-6.28-6.9-9.36-10.42L168.17,96.43z"/>
		</g>
		<g>
			<path d="M162.19,101.67c1.48,2.08,2.85,4.23,4.21,6.39c1.33,2.18,2.62,4.37,3.88,6.6c1.26,2.22,2.5,4.44,3.7,6.7
				c1.17,2.27,2.35,4.54,3.22,6.94l-0.05,0.02c-0.93-2.37-2.17-4.61-3.39-6.84c-1.24-2.23-2.52-4.43-3.82-6.61l-3.96-6.54
				c-1.28-2.2-2.59-4.39-3.82-6.62L162.19,101.67z"/>
		</g>
		<g>
			<path d="M169.02,109.22c3.59,2.97,7.01,6.15,10.37,9.37c3.3,3.29,6.55,6.66,9.34,10.42c0.36,0.46,0.68,0.95,1,1.44l0.48,0.73
				c0.15,0.25,0.28,0.52,0.42,0.78l0.41,0.78l0.35,0.8l0.69,1.61c0.9,2.15,1.73,4.33,2.53,6.52c1.57,4.39,2.99,8.83,4.28,13.3
				l-0.05,0.01c-1.36-4.45-2.84-8.87-4.47-13.23c-0.81-2.18-1.67-4.34-2.59-6.48l-0.7-1.6l-0.36-0.79l-0.41-0.76
				c-0.14-0.25-0.27-0.51-0.42-0.75l-0.49-0.72c-0.32-0.48-0.64-0.96-1.01-1.41c-2.83-3.68-6.09-7.01-9.37-10.3
				c-3.25-3.33-6.66-6.5-10.05-9.69L169.02,109.22z"/>
		</g>
		<g>
			<path d="M117.86,111.77c-0.67,0.56-1.34,1.09-1.98,1.65c-0.64,0.56-1.32,1.08-1.92,1.68c-1.2,1.2-2.24,2.61-2.72,4.27l-0.05-0.01
				c0.18-0.85,0.51-1.66,0.93-2.43c0.44-0.75,0.97-1.45,1.55-2.11c0.58-0.65,1.2-1.28,1.9-1.8c0.71-0.5,1.45-0.98,2.27-1.3
				L117.86,111.77z"/>
		</g>
		<g>
			<path d="M113.93,112.58c-2.23-0.03-4.45,0.19-6.62,0.66c-2.17,0.43-4.29,1.13-6.29,2.09c-1.99,0.96-3.89,2.17-5.53,3.67
				c-0.87,0.69-1.6,1.54-2.37,2.35c-0.75,0.82-1.37,1.76-2.07,2.63l-0.04-0.03c0.67-0.89,1.26-1.85,1.99-2.7
				c0.74-0.84,1.46-1.71,2.32-2.44c1.62-1.55,3.52-2.81,5.52-3.84c0.99-0.54,2.05-0.94,3.1-1.35l1.62-0.49
				c0.55-0.14,1.1-0.25,1.65-0.38c2.22-0.4,4.49-0.54,6.72-0.22L113.93,112.58z"/>
		</g>
		<g>
			<path d="M102.49,109.77c-2.6-0.02-5.2,0.06-7.78,0.3c-2.58,0.21-5.16,0.55-7.68,1.12c-2.52,0.58-5,1.4-7.3,2.59
				c-2.3,1.18-4.41,2.78-6.02,4.83l-0.04-0.03c1.57-2.09,3.65-3.77,5.95-5.02c2.3-1.25,4.79-2.13,7.32-2.76
				c2.53-0.66,5.13-1.03,7.74-1.23c2.61-0.15,5.23-0.16,7.82,0.15L102.49,109.77z"/>
		</g>
		<g>
			<g>
				<path d="M188.48,144.39c-1.1,1.26-2.31,2.41-3.57,3.5l-0.06-0.08c1.27-1.07,2.5-2.2,3.61-3.44L188.48,144.39z"/>
				<path d="M182.69,149.66c-1.78,1.3-3.67,2.46-5.67,3.4l-0.07-0.15c2-0.92,3.89-2.06,5.67-3.35L182.69,149.66z"/>
				<path d="M172.58,154.66l-1.39,0.29c-0.46,0.11-0.93,0.17-1.4,0.24l-2.81,0.39l-0.02-0.22l2.8-0.37
					c0.47-0.06,0.94-0.12,1.39-0.23l1.38-0.28L172.58,154.66z"/>
				<path d="M166.04,155.68c-3.13,0.31-6.28,0.45-9.42,0.5l0-0.16c3.14-0.07,6.28-0.24,9.41-0.56L166.04,155.68z"/>
				<polygon points="153.78,156.2 147.18,156.07 147.18,155.97 153.78,156.06 				"/>
				<polygon points="142.47,155.86 136.82,155.52 136.83,155.42 142.47,155.78 				"/>
				<polygon points="135.88,155.46 131.17,155.09 126.47,154.65 126.49,154.48 131.19,154.95 135.89,155.35 				"/>
				<polygon points="123.66,154.34 117.11,153.43 117.15,153.2 123.68,154.15 				"/>
				<path d="M112.45,152.83c-1.87-0.15-3.76-0.12-5.64,0l-0.02-0.24c1.89-0.12,3.78-0.15,5.67,0.01L112.45,152.83z"/>
				<polygon points="105.87,152.89 96.45,153.59 96.44,153.34 105.85,152.65 				"/>
				<path d="M93.62,153.7c-2.2,0.05-4.41,0.02-6.61-0.19l0.02-0.18c2.19,0.19,4.39,0.19,6.59,0.12L93.62,153.7z"/>
				<path d="M82.36,152.67c-0.91-0.28-1.78-0.63-2.66-0.97l-2.64-1.01l0.03-0.07l2.65,0.99c0.88,0.33,1.76,0.67,2.66,0.94
					L82.36,152.67z"/>
				<polygon points="76.17,150.34 71.55,148.42 71.56,148.4 76.19,150.27 				"/>
			</g>
		</g>
	</g>
</g>
<g id="face">
	<g id="Layer_35">
	</g>
	<g id="eye_1_">
		<g id="Layer_37">
		</g>
	</g>
	<g id="nose_1_">
	</g>
	<g id="whiskers_2_">
	</g>
</g>
<g id="bottle_left">
	<g id="outline">
	</g>
	<g id="Layer_42">
	</g>
	<g id="Whiskers">
	</g>
</g>
</svg>
