<svg xmlns="http://www.w3.org/2000/svg" viewBox="0 0 297.17 247.89"><defs><style>.cls-1{fill:#fff;}.cls-1,.cls-3,.cls-4{stroke:#231f20;stroke-miterlimit:10;}.cls-2{fill:#231f20;}.cls-3,.cls-4{fill:none;}.cls-3{stroke-width:0.25px;}.cls-4{stroke-width:0.75px;}.cls-5{fill:#605c5d;opacity:0.4;}</style></defs><title>Seals_Icons</title><g id="Seal_Left" data-name="Seal Left"><g id="body-2" data-name="body"><path class="cls-1" d="M120.68,193.4a54.89,54.89,0,0,0,1-10.72c-.19-4.59.09-12.57-.5-16.15s-2.43-12.06-2.94-14.1-1.28-3.13-1.53-5-.39-4.85-1.15-5.62-11.37-14.23-13.41-16.72-15.38-11.17-16.66-12.83S77.92,105.89,74,101.62,68.85,95,67.13,93.7a9.84,9.84,0,0,1-3.45-5.1c-.38-1.73-2.23-3.64-2-5.49s-.54-3.2,0-4.09-2.29-3.19-2.93-4.66-3.19-6.25-3.63-9-.9-4.34-.51-5.93a6.85,6.85,0,0,1,1-2.43s.76-5.3,3.89-6.19,3.38-1.53,6.32-1.92,5.74-2.29,7.53-2.8,2.68-1.09,5.75,0,3.7,1.27,5.49,1.4,9.31,2.23,12.12,2.87a51.73,51.73,0,0,0,13.6,1.34c6.76-.13,12.83-.47,12.83-.47a51.86,51.86,0,0,1,6.13-1.63,15.76,15.76,0,0,1,7.14.06c3,.77,12.39,1.28,17.24,2.49s21.13,7.59,22.47,8.42S188.21,65.3,191,67.15s12.32,9.25,16,13.15S218.66,94,222.17,102.89s6.19,17.49,7,22.28a87.61,87.61,0,0,0,6.13,19c2.23,4.4,7.21,13.34,8.17,17.87s8.23,16.34,9.44,18.83,4,13.08,4.34,15.77a10.12,10.12,0,0,0,2.11,4.66"/></g><g id="whiskers"><path class="cls-2" d="M81.13,73.81A35.09,35.09,0,0,1,85.33,79a44.19,44.19,0,0,1,3.23,5.88A93.34,93.34,0,0,1,93.3,97.4h0c-.69-2.11-1.48-4.2-2.33-6.25s-1.74-4.09-2.72-6.09a60.85,60.85,0,0,0-3.29-5.77,59.93,59.93,0,0,0-3.82-5.45Z"/><path class="cls-2" d="M80.11,79.19c.83,2.79,1.58,5.61,2.42,8.39.4,1.4.84,2.78,1.34,4.15l1.49,4.1c1,2.73,2.08,5.44,3.19,8.14s2.24,5.38,3.56,8l0,0c-1.38-2.57-2.58-5.24-3.75-7.91S86.06,98.69,85,96a81.81,81.81,0,0,1-2.94-8.26c-.76-2.82-1.44-5.66-2-8.52Z"/><path class="cls-2" d="M80.41,85.83c.85,4.29,1.5,8.63,2.07,13l1.66,13c.29,2.17.5,4.35.87,6.5l1.09,6.47c.39,2.15.66,4.33,1.14,6.46.27,1.06.55,2.12.87,3.17.16.52.33,1,.52,1.55a5.07,5.07,0,0,0,.71,1.46l0,0a5.43,5.43,0,0,1-.74-1.46c-.2-.51-.38-1-.54-1.55-.34-1-.64-2.1-.93-3.16-.5-2.13-.81-4.3-1.23-6.45l-1.17-6.46c-.4-2.16-.63-4.34-1-6.5-.61-4.34-1.22-8.68-1.76-13s-1.06-8.68-1.62-13Z"/><path class="cls-2" d="M69.93,151.79c-.18-5.37-.21-10.75-.3-16.12,0-2.69,0-5.36.08-8.08l.86-8c.62-5.34,1-10.71,2-16L75.34,87.7h0l-2.55,15.91c-1,5.28-1.31,10.66-1.88,16l-.76,8c-.09,2.66-.06,5.36-.07,8-.07,5.37,0,10.74-.15,16.12Z"/><path class="cls-2" d="M73.9,81.75c-1.33,3.94-2.58,7.89-3.61,11.9a120.44,120.44,0,0,0-2.72,12.12c-.32,2-.6,4.1-.74,6.16s-.11,4.14-.15,6.22l-.1,12.45h0l-.1-12.46c0-2.07-.1-4.14.07-6.23s.37-4.14.67-6.2a99.49,99.49,0,0,1,2.64-12.19,116,116,0,0,1,4-11.78Z"/><path class="cls-2" d="M73.9,76.64c-.23,1.55-.52,3.08-.79,4.61l-.89,4.58c-.27,1.54-.51,3.07-.68,4.62a30.13,30.13,0,0,0-.24,4.65h0a31.78,31.78,0,0,1,0-4.68c.12-1.56.31-3.11.54-4.66s.45-3.09.79-4.62.72-3,1.23-4.52Z"/><path class="cls-2" d="M75,70.65c.34.83.63,1.65,1,2.44a24.19,24.19,0,0,1,1,2.45c.62,1.65,1.2,3.33,1.75,5l0,0-2.07-4.87c-.35-.83-.76-1.56-1.1-2.41A9.85,9.85,0,0,1,75,70.66Z"/><path class="cls-2" d="M79.12,66.55a7.86,7.86,0,0,1,3.31-1.09,6.18,6.18,0,0,1,3.46.65,13.3,13.3,0,0,1,3,1.85A10.65,10.65,0,0,1,91,70.65l0,0a10.43,10.43,0,0,0-2.3-2.52,12.68,12.68,0,0,0-3-1.67A7,7,0,0,0,82.47,66a12.44,12.44,0,0,0-3.33.65Z"/><path class="cls-2" d="M70.22,68.64a5.54,5.54,0,0,0-3.46,2.82,19.12,19.12,0,0,1-1,2.19,3.91,3.91,0,0,0-.3,2.3h-.05a4,4,0,0,1,.12-2.41,19,19,0,0,0,.88-2.22,3.74,3.74,0,0,1,1.48-2,4.48,4.48,0,0,1,2.35-.73Z"/><path class="cls-2" d="M69.38,79.61A38.54,38.54,0,0,0,63.47,88a46.27,46.27,0,0,0-3.75,9.58c-1,3.31-2,6.62-2.76,10s-1.52,6.79-1,10.23h-.05c-.55-3.44.13-6.92.84-10.29s1.7-6.7,2.63-10c.47-1.66.91-3.34,1.53-5A37.47,37.47,0,0,1,63,87.8a31.7,31.7,0,0,1,6.32-8.22Z"/><path class="cls-2" d="M69.38,73.85c-.73,1-1.45,2-2.11,3s-1.36,2-2,3.13a27.52,27.52,0,0,0-1.58,3.34,26.89,26.89,0,0,0-1.17,3.52h-.05a27.73,27.73,0,0,1,1-3.6A28.91,28.91,0,0,1,65,79.83a22.72,22.72,0,0,1,1.89-3.23,17,17,0,0,1,2.5-2.79Z"/><path class="cls-2" d="M65.62,76.66c-1.27,1.54-2.53,3.08-3.74,4.66s-2.45,3.14-3.58,4.78a38.72,38.72,0,0,0-5.38,10.61h-.05A30.71,30.71,0,0,1,55,91.08a52.6,52.6,0,0,1,3-5.2A54.25,54.25,0,0,1,61.49,81a45.9,45.9,0,0,1,4.09-4.39Z"/><path class="cls-2" d="M66,71.45a39.38,39.38,0,0,0-3.82,2.84,46.25,46.25,0,0,0-3.53,3.18,34.33,34.33,0,0,0-3.09,3.62,37.64,37.64,0,0,0-2.6,4l-.05,0A38.87,38.87,0,0,1,55.32,81a33.87,33.87,0,0,1,3-3.76,26,26,0,0,1,3.51-3.29,20.06,20.06,0,0,1,4.11-2.5Z"/><path class="cls-2" d="M60.57,76.65a87.26,87.26,0,0,0-6.34,9.23A55.08,55.08,0,0,0,49.41,96L49,97.28c-.13.45-.23.9-.35,1.35s-.24.9-.33,1.36l-.21,1.37a17.3,17.3,0,0,0-.24,2.78c-.08.93,0,1.87,0,2.8.06,1.87.13,3.74.3,5.6.09.93.19,1.86.36,2.78a10.34,10.34,0,0,0,.32,1.36,4.6,4.6,0,0,0,.25.65c.1.19.24.44.44.48v0c-.28,0-.39-.3-.5-.49a3.81,3.81,0,0,1-.27-.66,10.43,10.43,0,0,1-.35-1.36c-.19-.92-.3-1.85-.41-2.78-.21-1.87-.31-3.74-.4-5.61,0-.94-.11-1.87,0-2.81a17.67,17.67,0,0,1,.21-2.82l.19-1.4c.09-.46.22-.92.32-1.38s.21-.91.33-1.37L49,95.83a48.38,48.38,0,0,1,4.77-10.2,62.37,62.37,0,0,1,6.74-9Z"/><path class="cls-2" d="M66.55,65.47c-.9.14-1.78.28-2.64.5a20.83,20.83,0,0,0-2.56.75A10.06,10.06,0,0,0,59,68a9.24,9.24,0,0,0-1.93,1.87l0,0a9.5,9.5,0,0,1,1.81-2,10.25,10.25,0,0,1,2.33-1.46,10.5,10.5,0,0,1,2.62-.88,9.05,9.05,0,0,1,2.75-.06Z"/><path class="cls-2" d="M63.75,68.64a24.85,24.85,0,0,0-6.12,2.94,17.61,17.61,0,0,0-4.87,4.63,35.1,35.1,0,0,0-2.91,6.16,45.23,45.23,0,0,0-2.17,6.48h0a44,44,0,0,1,2-6.57A34.64,34.64,0,0,1,52.43,76a16.11,16.11,0,0,1,4.93-4.83,19.33,19.33,0,0,1,6.38-2.57Z"/><path class="cls-2" d="M58.36,73.85c-2.79,2.67-5.59,5.33-8.23,8.14a99.49,99.49,0,0,0-7.61,8.68,28.34,28.34,0,0,0-3,4.88c-.8,1.74-1.45,3.58-2.12,5.38a50.78,50.78,0,0,0-3,11.16h0a50,50,0,0,1,2.78-11.23c.65-1.83,1.27-3.65,2-5.43a27.38,27.38,0,0,1,3-5,81.45,81.45,0,0,1,7.57-8.8c2.77-2.71,5.56-5.38,8.56-7.83Z"/><path class="cls-2" d="M69.34,62.27c-.41-.27-.77-.57-1.16-.8A2.34,2.34,0,0,0,67,61a2.77,2.77,0,0,0-1.3.34,2.7,2.7,0,0,0-1,.92l0,0a2.72,2.72,0,0,1,.95-1.1A3.07,3.07,0,0,1,67,60.61a2,2,0,0,1,1.49.45,3.26,3.26,0,0,1,.91,1.18Z"/><path class="cls-2" d="M71.89,58.68a4.45,4.45,0,0,1-.33-1,8.11,8.11,0,0,1-.12-1,4.13,4.13,0,0,0-.2-.94c-.07-.25-.43-.64-.58-.24h0a.35.35,0,0,1,.14-.24.29.29,0,0,1,.3,0,.9.9,0,0,1,.4.37,4.72,4.72,0,0,1,.38,1,4.32,4.32,0,0,1,.21,1,3,3,0,0,1-.11,1Z"/><path class="cls-2" d="M76.41,55.73a3.75,3.75,0,0,1,.66-.95,5.19,5.19,0,0,1,.91-.69,8.17,8.17,0,0,1,1-.57,2.32,2.32,0,0,1,1.12-.27v0a2.29,2.29,0,0,0-1,.43c-.3.21-.59.44-.87.68s-.52.53-.81.75a6.21,6.21,0,0,1-1,.6Z"/><path class="cls-2" d="M67,59.42a13.38,13.38,0,0,0-1.27-.94,7.77,7.77,0,0,0-1.33-.79,6.13,6.13,0,0,0-3.1-.43v0A6.76,6.76,0,0,1,62.89,57a5.69,5.69,0,0,1,1.63.28,4.38,4.38,0,0,1,1.49.76,3.62,3.62,0,0,1,1,1.32Z"/><path class="cls-2" d="M63.17,49.45c-.23-.37-.38-.75-.57-1.11s-.3-.75-.49-1.11a5,5,0,0,0-1.57-1.85l0,0A4.7,4.7,0,0,1,62.46,47a4.3,4.3,0,0,1,.6,1.14,3.47,3.47,0,0,1,.16,1.28Z"/><path class="cls-2" d="M63.72,49.16c-.42-.69-.79-1.38-1.19-2.06s-.74-1.38-1.15-2.05a19.38,19.38,0,0,0-2.93-3.71l0,0a17.17,17.17,0,0,1,3.22,3.53,13.82,13.82,0,0,1,1.26,2,10.74,10.74,0,0,1,.8,2.27Z"/><path class="cls-2" d="M59.47,52.15c-.91-.62-1.78-1.25-2.65-1.88A9.3,9.3,0,0,0,54,48.77h0a6.06,6.06,0,0,0-2.46-.4v0a6.28,6.28,0,0,1,2.55.19h0a9.78,9.78,0,0,1,3,1.35,8.12,8.12,0,0,1,1.3,1,8.63,8.63,0,0,1,1.11,1.23Z"/><path class="cls-2" d="M59.47,51.25c-.76-.63-1.52-1.23-2.32-1.77a27.44,27.44,0,0,0-2.44-1.58,19,19,0,0,0-5.48-2v0a19,19,0,0,1,2.89.6,18.2,18.2,0,0,1,2.76,1.09,13.21,13.21,0,0,1,2.55,1.54,10.24,10.24,0,0,1,2.07,2.14Z"/><path class="cls-2" d="M56.67,54.53c-1.28-.39-2.55-.78-3.84-1.06a20.62,20.62,0,0,0-3.89-.63,11,11,0,0,0-3.89.61,8.43,8.43,0,0,0-3.45,1.87l0,0A8.45,8.45,0,0,1,45,53.21a11.67,11.67,0,0,1,4-.77A14.71,14.71,0,0,1,53,53a17.78,17.78,0,0,1,3.73,1.51Z"/><path class="cls-2" d="M57.06,53.51c-.63-.1-1.23-.25-1.83-.38l-1.79-.45a12,12,0,0,0-3.69-.27v0a11,11,0,0,1,3.76-.08,9.73,9.73,0,0,1,1.86.37,7.34,7.34,0,0,1,1.72.82Z"/><path class="cls-2" d="M56.08,55.33a21.65,21.65,0,0,0-2.41,0,13.41,13.41,0,0,0-2.37.24,7.18,7.18,0,0,0-2.21.89A7.32,7.32,0,0,0,47.26,58l0,0A7.48,7.48,0,0,1,49,56.21a7.25,7.25,0,0,1,2.25-1.06,7.66,7.66,0,0,1,2.47-.36,7.1,7.1,0,0,1,2.42.49Z"/><path class="cls-2" d="M55.19,58.29c-1.6.09-3.19.18-4.77.36a26.17,26.17,0,0,0-4.66.84,15,15,0,0,0-4.12,2.29A22.9,22.9,0,0,0,38.11,65l0,0a23.19,23.19,0,0,1,3.41-3.38,15.31,15.31,0,0,1,4.16-2.47,19.19,19.19,0,0,1,4.74-1,26.63,26.63,0,0,1,4.81.09Z"/><path class="cls-2" d="M54.73,59.09a35.62,35.62,0,0,0-6.18,1.66,15.16,15.16,0,0,0-2.87,1.38,13.6,13.6,0,0,0-2.49,2h0a6.78,6.78,0,0,0-2,2.77h-.05A6.9,6.9,0,0,1,43,64h0a13.17,13.17,0,0,1,2.46-2.13,17.31,17.31,0,0,1,2.88-1.54,15.4,15.4,0,0,1,3.12-.95A14.62,14.62,0,0,1,54.72,59Z"/><path class="cls-2" d="M63.18,60.32a12.19,12.19,0,0,0-1.47-.59c-.49-.17-1-.37-1.49-.51a17.39,17.39,0,0,0-3.15-.51v-.05c.53,0,1.07,0,1.62,0a14.89,14.89,0,0,1,1.62.19,5.53,5.53,0,0,1,1.59.44,3.41,3.41,0,0,1,1.31,1Z"/><path class="cls-2" d="M60.94,60.83a34.75,34.75,0,0,0-6.3.6,14.3,14.3,0,0,0-3,.9A8.84,8.84,0,0,0,49,64.06h0a13,13,0,0,0-1.94,2.05,8,8,0,0,0-1.32,2.5h-.05A8.12,8.12,0,0,1,47,66a11.83,11.83,0,0,1,1.9-2.17h0a11.13,11.13,0,0,1,5.7-2.93,16.44,16.44,0,0,1,3.21-.36,17.16,17.16,0,0,1,3.2.21Z"/><path class="cls-2" d="M63.45,63l-5.1,0a32.36,32.36,0,0,0-5,.25c-.19.06-.4.11-.57.18a2.13,2.13,0,0,0-.5.31c-.34.26-.68.51-1,.78a5.76,5.76,0,0,0-1.52,1.95,12,12,0,0,0-1,4.94h0a12.28,12.28,0,0,1,.79-5.05A6,6,0,0,1,51,64.3c.33-.29.67-.56,1-.82a2.46,2.46,0,0,1,.57-.38c.21-.09.43-.15.64-.22a22.17,22.17,0,0,1,5.13-.36,43.48,43.48,0,0,1,5.1.43Z"/><path class="cls-2" d="M54.74,63.89a14.49,14.49,0,0,0-2.85,3,8.8,8.8,0,0,0-1,1.79,8.51,8.51,0,0,0-.55,2h0a13.84,13.84,0,0,0-.3,1.93,4.29,4.29,0,0,0,.18,1.92l0,0a4.31,4.31,0,0,1-.32-2,12.08,12.08,0,0,1,.2-2h0a8.81,8.81,0,0,1,.48-2.09,8.35,8.35,0,0,1,1-1.94A7.85,7.85,0,0,1,52.91,65a7.48,7.48,0,0,1,1.8-1.16Z"/><path class="cls-2" d="M60.13,64.7a30,30,0,0,0-6,2.17A17.37,17.37,0,0,0,49,70.5,18.35,18.35,0,0,0,45.91,76a25,25,0,0,0-1,3,10,10,0,0,0-.37,3.16h0a9.83,9.83,0,0,1,.27-3.2,23.83,23.83,0,0,1,.92-3.09q.57-1.52,1.26-3c.22-.49.52-.95.78-1.43s.63-.88,1-1.3a15.6,15.6,0,0,1,5.22-3.81,21.14,21.14,0,0,1,6.2-1.77Z"/><path class="cls-2" d="M56.35,69a16.17,16.17,0,0,0-4.22,1.94,22.93,22.93,0,0,0-3.64,2.86,24.53,24.53,0,0,0-3,3.56c-.47.62-.82,1.32-1.23,2s-.69,1.39-1,2.09v-.06c-.15,1.94-.21,3.89-.19,5.83,0,1,.06,1.94.16,2.91A10.59,10.59,0,0,0,43.85,93l0,0a10.37,10.37,0,0,1-.7-2.84c-.12-1-.2-1.95-.23-2.92-.08-2,0-3.91.06-5.86v0c.34-.71.65-1.44,1-2.14s.74-1.39,1.2-2a21.07,21.07,0,0,1,3-3.69,18.14,18.14,0,0,1,3.79-2.84A13.92,13.92,0,0,1,56.34,69Z"/></g><g id="nose"><path class="cls-3" d="M68.77,50.81s5.53-2.67,6.89-2.51,2.81,0,3.09,1.15-.92,4-1.64,4S74.34,52,73.58,51.23,68.77,50.81,68.77,50.81Z"/><path class="cls-2" d="M80.77,57.49s1.44.81,1.53,1.19-2.13.35-2.72-.41c0,0-5.37-4.12-7.66-4.3s-2.64-1.57-1.49-1.09,5.89,2.83,6.64,3.24A37.9,37.9,0,0,0,80.77,57.49Z"/><path class="cls-3" d="M66.3,49.45S63,52.24,62.34,54s.34,2.8-2.21,3.39-3.83,0-4.43.91S61,59.4,61,59.4s-.27-1.95,2.45-4.55a32,32,0,0,1,2.72-2.59c1.19-1,.64-1.79,1.6-2.81S66.3,49.45,66.3,49.45Z"/><path class="cls-2" d="M66.28,57.13c.47.25.85.42.93.25a.33.33,0,0,0-.21-.49A1.58,1.58,0,0,0,66.28,57.13Z"/><path class="cls-2" d="M69.66,57.09c.47.25.86.42.94.25a.33.33,0,0,0-.21-.49A1.59,1.59,0,0,0,69.66,57.09Z"/><path class="cls-2" d="M75.19,57.27c.38.38.7.65.83.51a.33.33,0,0,0-.07-.53A1.6,1.6,0,0,0,75.19,57.27Z"/><path class="cls-2" d="M71.57,59.47c.38.38.7.65.83.51a.33.33,0,0,0-.07-.53A1.6,1.6,0,0,0,71.57,59.47Z"/><path class="cls-2" d="M76.5,61.6c.38.37.7.64.82.5a.33.33,0,0,0-.06-.53A1.57,1.57,0,0,0,76.5,61.6Z"/><path class="cls-2" d="M69.2,62.77c.38.37.7.64.83.5a.33.33,0,0,0-.07-.53A1.57,1.57,0,0,0,69.2,62.77Z"/><path class="cls-2" d="M66.76,60.15c.45.3.81.5.91.34a.33.33,0,0,0-.16-.51A1.67,1.67,0,0,0,66.76,60.15Z"/><path class="cls-2" d="M63,61c.44.3.8.5.9.34a.33.33,0,0,0-.16-.51A1.62,1.62,0,0,0,63,61Z"/><path class="cls-2" d="M64.33,63.85c.44.3.63.39.73.23a.33.33,0,0,0-.16-.51C64.65,63.51,64.33,63.85,64.33,63.85Z"/><path class="cls-2" d="M66.6,66.59c.45.3.64.4.74.24a.33.33,0,0,0-.16-.51C66.93,66.25,66.6,66.59,66.6,66.59Z"/><path class="cls-2" d="M72.5,65.67c.44.3.64.39.74.23a.33.33,0,0,0-.16-.51C72.83,65.32,72.5,65.67,72.5,65.67Z"/></g><g id="Eye-2" data-name="Eye"><path class="cls-2" d="M123.24,68.49s-1,4.15,0,5.68,2.87,3.77,5.29,3.57,4.15.26,4.6-1.65,1.34-6.45,1.21-7.6-2.23-3.64-4-3.7-4.85,1.59-5.48,2A12.87,12.87,0,0,0,123.24,68.49Z"/><path class="cls-2" d="M121.81,68.56a35.41,35.41,0,0,0-.86,3.52c-.18,1.16-.44,2.49.36,3.46a11.13,11.13,0,0,0,5.84,4c2.26.76,4.7,1.44,7,.63a28.81,28.81,0,0,0,3.38-1.27,9.21,9.21,0,0,0,1.62-.74,10.61,10.61,0,0,0,1.44-1.05l-.06.19-1.47-6.89a25.69,25.69,0,0,0-1-3.33,8.67,8.67,0,0,0-.77-1.52,2.56,2.56,0,0,0-.52-.6l-.71-.51a28.52,28.52,0,0,0-3-1.84,4.54,4.54,0,0,0-1.57-.55,7.6,7.6,0,0,0-1.7.14,15.81,15.81,0,0,0-3.35.92,26.31,26.31,0,0,0-2.92,1.93h0l-.9.8,0,0Zm0,0,.78-2.74h0l.89-.82h0a27.34,27.34,0,0,1,2.88-2.07,16.5,16.5,0,0,1,3.4-1,7.64,7.64,0,0,1,1.8-.19,4.84,4.84,0,0,1,1.75.54,23.92,23.92,0,0,1,3,1.87l.72.51a2.93,2.93,0,0,1,.65.72,10.65,10.65,0,0,1,.81,1.62,23.81,23.81,0,0,1,1,3.4l1.38,6.92,0,.11-.09.07a11.41,11.41,0,0,1-1.5,1.08,9.89,9.89,0,0,1-1.68.74,29.24,29.24,0,0,1-3.43,1.25,10,10,0,0,1-1.81.34,7.55,7.55,0,0,1-1.84-.09,18.51,18.51,0,0,1-3.52-1,11.3,11.3,0,0,1-5.84-4.18,2.73,2.73,0,0,1-.56-1.72,11,11,0,0,1,.21-1.81A30.22,30.22,0,0,1,121.77,68.55Z"/><path class="cls-2" d="M124.34,66.55s4-2.25,5.07-2.21,2.12-.3,3.44,1.11a9.35,9.35,0,0,1,2.85,4.64,58.12,58.12,0,0,1,.64,6.51A6.08,6.08,0,0,1,134,77.76a21.51,21.51,0,0,1-5.39.45,21.76,21.76,0,0,1-5.21-1.36c-.46-.21,4.17,2.81,6.49,2.64s3.34-.13,5.05-1.06,2-1.28,2-1.41.08-1.62,0-3.87-.81-5.45-2-6.55-3.15-2.86-4-2.94a25.45,25.45,0,0,0-4.13.34,19.87,19.87,0,0,0-4.25,1.83l-1.27,4.37s2-1.31,2.34-2.2A9.28,9.28,0,0,1,124.34,66.55Z"/></g><g id="Ear"><path class="cls-4" d="M162.17,85.15s.13-2.81,1.34-3.45,3.45-1,3.7,0,1.41,2.87.77,3.45a24.72,24.72,0,0,1-3.64,2.55,13.21,13.21,0,0,1-2.17,1.15"/></g><g id="Layer_11" data-name="Layer 11"><path class="cls-5" d="M128.41,65.68s-2,1.41-2,2.27a17.68,17.68,0,0,0-.19,3.62,31.34,31.34,0,0,0,.58,3.94c.35,1-.1,1.4,1.85,1.47s3,.29,3.44-1.18,1.47-3.43,1.5-4.83.2-2.93-.16-3.53-2.26-2.53-2.77-2.53A10.52,10.52,0,0,0,128.41,65.68Z"/></g></g></svg>