<svg xmlns="http://www.w3.org/2000/svg" viewBox="0 0 293.3 247.89"><defs><style>.cls-1{fill:#fff;}.cls-1,.cls-3,.cls-4{stroke:#231f20;stroke-miterlimit:10;}.cls-2{fill:#231f20;}.cls-3,.cls-4{fill:none;}.cls-3{stroke-width:0.25px;}.cls-4{stroke-width:0.75px;}.cls-5{fill:#605c5d;opacity:0.4;}</style></defs><title>Seals_Icons</title><g id="Seal_Right" data-name="Seal Right"><g id="body_copy" data-name="body copy"><path class="cls-1" d="M180.27,193.4a55.76,55.76,0,0,1-1-10.72c.19-4.59-.08-12.57.5-16.15s2.44-12.06,2.95-14.1,1.28-3.13,1.53-5,.38-4.85,1.15-5.62,11.36-14.23,13.4-16.72,15.39-11.17,16.66-12.83,7.6-6.39,11.49-10.66,5.17-6.58,6.9-7.92a9.75,9.75,0,0,0,3.44-5.1c.39-1.73,2.24-3.64,2-5.49s.53-3.2,0-4.09,2.28-3.19,2.92-4.66,3.19-6.25,3.64-9,.89-4.34.51-5.93a6.85,6.85,0,0,0-1-2.43s-.77-5.3-3.89-6.19-3.39-1.53-6.32-1.92-5.75-2.29-7.53-2.8-2.69-1.09-5.75,0-3.7,1.27-5.49,1.4-9.32,2.23-12.13,2.87a51.64,51.64,0,0,1-13.59,1.34c-6.77-.13-12.83-.47-12.83-.47a51.86,51.86,0,0,0-6.13-1.63,15.81,15.81,0,0,0-7.15.06c-3,.77-12.38,1.28-17.23,2.49s-21.13,7.59-22.47,8.42-12.13,4.73-14.94,6.58-12.32,9.25-16,13.15S82.3,94,78.78,102.89s-6.19,17.49-7,22.28a88.16,88.16,0,0,1-6.13,19c-2.23,4.4-7.21,13.34-8.17,17.87s-8.23,16.34-9.45,18.83-3.95,13.08-4.34,15.77a10,10,0,0,1-2.1,4.66"/></g><g id="whiskers_copy" data-name="whiskers copy"><path class="cls-2" d="M219.87,73.85A62.09,62.09,0,0,0,216,79.3a63,63,0,0,0-3.28,5.77q-1.47,3-2.73,6.09c-.84,2-1.63,4.14-2.33,6.25h0a93.39,93.39,0,0,1,4.75-12.5A45.29,45.29,0,0,1,215.62,79a35.16,35.16,0,0,1,4.21-5.21Z"/><path class="cls-2" d="M220.89,79.2c-.54,2.86-1.23,5.7-2,8.52A79.37,79.37,0,0,1,216,96c-1.07,2.71-2.18,5.41-3.33,8.08s-2.37,5.34-3.75,7.91l0,0c1.31-2.6,2.45-5.29,3.56-8s2.16-5.41,3.19-8.14l1.48-4.1c.51-1.37.95-2.75,1.34-4.15.85-2.78,1.6-5.6,2.43-8.39Z"/><path class="cls-2" d="M220.6,85.83c-.56,4.35-1.21,8.68-1.62,13s-1.15,8.68-1.76,13c-.33,2.16-.55,4.34-.95,6.5l-1.17,6.46c-.42,2.15-.73,4.32-1.24,6.45-.28,1.06-.58,2.11-.92,3.16-.17.52-.34,1-.54,1.55a5.46,5.46,0,0,1-.75,1.46l0,0a5.65,5.65,0,0,0,.71-1.46c.19-.51.36-1,.52-1.55.31-1,.6-2.11.87-3.17.47-2.13.75-4.31,1.14-6.46l1.09-6.47c.37-2.15.57-4.33.87-6.5l1.66-13c.57-4.34,1.22-8.68,2.07-13Z"/><path class="cls-2" d="M231,151.79c-.11-5.38-.07-10.75-.15-16.12,0-2.68,0-5.38-.07-8l-.76-8c-.57-5.33-.86-10.71-1.87-16l-2.55-15.91h.05l2.75,15.88c1.06,5.28,1.4,10.65,2,16l.86,8c.09,2.72.06,5.39.07,8.08-.08,5.37-.11,10.75-.3,16.12Z"/><path class="cls-2" d="M227.11,81.74a116,116,0,0,1,4,11.78,99.49,99.49,0,0,1,2.64,12.19c.29,2.06.55,4.12.66,6.2s.06,4.16.08,6.23l-.1,12.46h-.05l-.1-12.45c0-2.08.05-4.16-.15-6.22s-.42-4.11-.74-6.16c-.68-4.08-1.64-8.12-2.72-12.12s-2.28-8-3.61-11.9Z"/><path class="cls-2" d="M227.11,76.63c.5,1.48.87,3,1.22,4.52s.58,3.08.8,4.62.41,3.1.53,4.66a29.24,29.24,0,0,1,0,4.68h0a28.93,28.93,0,0,0-.24-4.65c-.16-1.55-.4-3.08-.68-4.62l-.89-4.58c-.26-1.53-.56-3.06-.78-4.61Z"/><path class="cls-2" d="M226,70.66a9.85,9.85,0,0,1-.59,2.62c-.34.85-.75,1.58-1.1,2.41l-2.08,4.87,0,0c.55-1.67,1.13-3.35,1.75-5a24.19,24.19,0,0,1,1-2.45c.37-.79.66-1.61,1-2.44Z"/><path class="cls-2" d="M221.82,66.6a12.51,12.51,0,0,0-3.33-.65,7,7,0,0,0-3.26.53,12.88,12.88,0,0,0-3,1.67A10.59,10.59,0,0,0,210,70.67l0,0A10.65,10.65,0,0,1,212.11,68a13.36,13.36,0,0,1,3-1.85,6.17,6.17,0,0,1,3.46-.65,7.86,7.86,0,0,1,3.31,1.09Z"/><path class="cls-2" d="M230.75,68.59a4.42,4.42,0,0,1,2.34.73,3.76,3.76,0,0,1,1.49,2,17.36,17.36,0,0,0,.88,2.22,4.14,4.14,0,0,1,.12,2.41h-.05a3.91,3.91,0,0,0-.3-2.3,17.57,17.57,0,0,1-1-2.19,5.54,5.54,0,0,0-3.46-2.82Z"/><path class="cls-2" d="M231.61,79.58a31.91,31.91,0,0,1,6.32,8.22,37.41,37.41,0,0,1,2.15,4.74c.63,1.63,1.07,3.31,1.54,5,.93,3.33,1.86,6.66,2.62,10s1.39,6.85.85,10.29H245c.48-3.44-.26-6.89-1-10.23s-1.79-6.67-2.77-10A45.72,45.72,0,0,0,237.48,88a38.16,38.16,0,0,0-5.9-8.43Z"/><path class="cls-2" d="M231.61,73.81a16.91,16.91,0,0,1,2.49,2.79,22.78,22.78,0,0,1,1.9,3.23,28.91,28.91,0,0,1,1.47,3.44,27.7,27.7,0,0,1,1,3.6h0a28.47,28.47,0,0,0-1.17-3.52A27.59,27.59,0,0,0,235.64,80c-.59-1.08-1.28-2.1-1.95-3.13s-1.38-2-2.11-3Z"/><path class="cls-2" d="M235.38,76.62A47.22,47.22,0,0,1,239.47,81,57.74,57.74,0,0,1,246,91.08a31.46,31.46,0,0,1,2.11,5.62H248a38.72,38.72,0,0,0-5.38-10.61c-1.13-1.64-2.37-3.2-3.58-4.78s-2.47-3.12-3.74-4.66Z"/><path class="cls-2" d="M235,71.4a20.34,20.34,0,0,1,4.11,2.5,27.3,27.3,0,0,1,3.51,3.29,33.87,33.87,0,0,1,3,3.76,37.17,37.17,0,0,1,2.44,4.12l0,0a37.64,37.64,0,0,0-2.6-4,35.56,35.56,0,0,0-3.09-3.62,46.25,46.25,0,0,0-3.53-3.18A39.38,39.38,0,0,0,235,71.45Z"/><path class="cls-2" d="M240.42,76.62a62.37,62.37,0,0,1,6.74,9,48.34,48.34,0,0,1,4.76,10.2l.43,1.34c.13.46.23.92.34,1.37s.23.92.31,1.38l.2,1.4a18.92,18.92,0,0,1,.21,2.82c.06.94,0,1.87,0,2.81-.08,1.87-.19,3.74-.39,5.61-.11.93-.23,1.86-.42,2.78a10.43,10.43,0,0,1-.35,1.36,3.77,3.77,0,0,1-.26.66c-.11.19-.22.45-.5.49v0c.2,0,.34-.29.43-.48a3.64,3.64,0,0,0,.25-.65,10.34,10.34,0,0,0,.32-1.36c.18-.92.27-1.85.37-2.78.17-1.86.24-3.73.29-5.6,0-.93.09-1.87,0-2.8a18.52,18.52,0,0,0-.24-2.78l-.22-1.37c-.09-.46-.22-.91-.32-1.36s-.22-.9-.35-1.35L251.54,96a54.39,54.39,0,0,0-4.81-10.07,87.35,87.35,0,0,0-6.35-9.23Z"/><path class="cls-2" d="M234.4,65.42a9.06,9.06,0,0,1,2.75.06,10.64,10.64,0,0,1,2.62.88,10,10,0,0,1,2.32,1.46,9.54,9.54,0,0,1,1.82,2l0,0A9.49,9.49,0,0,0,241.94,68a10.06,10.06,0,0,0-2.33-1.3,20.83,20.83,0,0,0-2.56-.75c-.87-.22-1.75-.36-2.65-.5Z"/><path class="cls-2" d="M237.22,68.59a19.41,19.41,0,0,1,6.38,2.57A16.22,16.22,0,0,1,248.53,76a34.64,34.64,0,0,1,2.81,6.29,44,44,0,0,1,2,6.57h0a42.88,42.88,0,0,0-2.17-6.48,35.06,35.06,0,0,0-2.9-6.16,17.51,17.51,0,0,0-4.88-4.63,24.68,24.68,0,0,0-6.12-2.94Z"/><path class="cls-2" d="M242.63,73.81c3,2.45,5.79,5.12,8.55,7.83a80.44,80.44,0,0,1,7.58,8.8,27.91,27.91,0,0,1,3,5c.79,1.78,1.41,3.6,2.06,5.43a50.56,50.56,0,0,1,2.78,11.23h-.05a50.25,50.25,0,0,0-3-11.16c-.67-1.8-1.32-3.64-2.11-5.38a28.34,28.34,0,0,0-3-4.88A99.49,99.49,0,0,0,250.83,82c-2.65-2.81-5.44-5.47-8.23-8.14Z"/><path class="cls-2" d="M231.57,62.24a3.29,3.29,0,0,1,.92-1.18,2,2,0,0,1,1.48-.45,3,3,0,0,1,1.41.53,2.75,2.75,0,0,1,1,1.1l-.05,0a2.57,2.57,0,0,0-1-.92A2.73,2.73,0,0,0,234,61a2.31,2.31,0,0,0-1.18.46c-.4.23-.76.53-1.17.8Z"/><path class="cls-2" d="M229,58.68a3.06,3.06,0,0,1-.12-1,4.92,4.92,0,0,1,.22-1,5.31,5.31,0,0,1,.37-1,1,1,0,0,1,.41-.37.29.29,0,0,1,.3,0,.35.35,0,0,1,.14.24h-.05c-.14-.4-.51,0-.57.24a4.76,4.76,0,0,0-.21.94,8.1,8.1,0,0,1-.11,1,4,4,0,0,1-.34,1Z"/><path class="cls-2" d="M224.51,55.76a6.21,6.21,0,0,1-1-.6c-.3-.22-.54-.5-.82-.75a8.43,8.43,0,0,0-.87-.68,2.26,2.26,0,0,0-1-.43v0a2.32,2.32,0,0,1,1.12.27,8.17,8.17,0,0,1,1,.57,5.51,5.51,0,0,1,.9.69,3.55,3.55,0,0,1,.67.95Z"/><path class="cls-2" d="M233.93,59.39a3.65,3.65,0,0,1,1-1.32,4.34,4.34,0,0,1,1.48-.76,5.69,5.69,0,0,1,1.63-.28,6.71,6.71,0,0,1,1.62.18v0a6.11,6.11,0,0,0-3.09.43,7.77,7.77,0,0,0-1.33.79,13.38,13.38,0,0,0-1.27.94Z"/><path class="cls-2" d="M237.74,49.44a3.46,3.46,0,0,1,.15-1.28,5.45,5.45,0,0,1,2.5-2.82l0,0a5.18,5.18,0,0,0-1.57,1.85c-.18.36-.3.75-.48,1.11s-.35.74-.57,1.11Z"/><path class="cls-2" d="M237.19,49.14a10.19,10.19,0,0,1,.79-2.27,14.79,14.79,0,0,1,1.27-2,17.17,17.17,0,0,1,3.22-3.53l0,0a19.33,19.33,0,0,0-2.92,3.71c-.41.67-.76,1.37-1.15,2.05s-.78,1.37-1.2,2.06Z"/><path class="cls-2" d="M241.45,52.11a8.63,8.63,0,0,1,1.11-1.23,8.51,8.51,0,0,1,1.29-1,9.94,9.94,0,0,1,3-1.35h0a6.33,6.33,0,0,1,2.56-.19v0a6.14,6.14,0,0,0-2.47.4h0a9.25,9.25,0,0,0-2.8,1.5c-.87.63-1.75,1.26-2.66,1.88Z"/><path class="cls-2" d="M241.45,51.22a10.2,10.2,0,0,1,2.06-2.14,13.52,13.52,0,0,1,2.55-1.54,18.62,18.62,0,0,1,2.76-1.09,19.4,19.4,0,0,1,2.9-.6v0a18.91,18.91,0,0,0-5.47,2,27.44,27.44,0,0,0-2.44,1.58c-.8.54-1.56,1.14-2.33,1.77Z"/><path class="cls-2" d="M244.26,54.49A18.08,18.08,0,0,1,248,53a14.69,14.69,0,0,1,4-.54,11.62,11.62,0,0,1,4,.77,8.49,8.49,0,0,1,3.42,2.08l0,0a8.4,8.4,0,0,0-3.46-1.87,11,11,0,0,0-3.88-.61,20.62,20.62,0,0,0-3.89.63c-1.3.28-2.57.67-3.85,1.06Z"/><path class="cls-2" d="M243.88,53.47a7.34,7.34,0,0,1,1.72-.82,9.78,9.78,0,0,1,1.85-.37,11,11,0,0,1,3.76.08v0a12,12,0,0,0-3.69.27l-1.79.45c-.6.13-1.2.28-1.83.38Z"/><path class="cls-2" d="M244.86,55.28a7.21,7.21,0,0,1,2.43-.49,7.66,7.66,0,0,1,2.47.36A7.2,7.2,0,0,1,252,56.21a7.33,7.33,0,0,1,1.74,1.73l0,0a7.32,7.32,0,0,0-1.83-1.55,7.18,7.18,0,0,0-2.21-.89,13.51,13.51,0,0,0-2.37-.24,21.58,21.58,0,0,0-2.41,0Z"/><path class="cls-2" d="M245.76,58.24a26.76,26.76,0,0,1,4.82-.09,19.28,19.28,0,0,1,4.74,1,15.11,15.11,0,0,1,4.15,2.47A22.78,22.78,0,0,1,262.89,65l0,0a22.9,22.9,0,0,0-3.53-3.21,15,15,0,0,0-4.13-2.29,26,26,0,0,0-4.66-.84c-1.58-.18-3.17-.27-4.77-.36Z"/><path class="cls-2" d="M246.23,59a14.71,14.71,0,0,1,3.24.31,15.6,15.6,0,0,1,3.12.95,17.21,17.21,0,0,1,2.87,1.54A13.23,13.23,0,0,1,257.93,64h0a6.88,6.88,0,0,1,1.95,2.93h-.05a6.75,6.75,0,0,0-2-2.77h0a14,14,0,0,0-2.49-2,15.46,15.46,0,0,0-2.87-1.38,36.1,36.1,0,0,0-6.18-1.66Z"/><path class="cls-2" d="M237.75,60.28a3.33,3.33,0,0,1,1.31-1,5.53,5.53,0,0,1,1.59-.44,14.89,14.89,0,0,1,1.62-.19c.54,0,1.08,0,1.62,0v.05a17.39,17.39,0,0,0-3.15.51c-.51.14-1,.34-1.49.51a12.19,12.19,0,0,0-1.47.59Z"/><path class="cls-2" d="M240,60.78a17.1,17.1,0,0,1,3.2-.21,16.62,16.62,0,0,1,3.21.36,11.06,11.06,0,0,1,5.69,2.93h0A12.64,12.64,0,0,1,254,66a8.1,8.1,0,0,1,1.22,2.59h0a8.22,8.22,0,0,0-1.32-2.5,13,13,0,0,0-1.94-2.05h0a8.66,8.66,0,0,0-2.58-1.73,14.3,14.3,0,0,0-3-.9,34.75,34.75,0,0,0-6.3-.6Z"/><path class="cls-2" d="M237.51,63a43.5,43.5,0,0,1,5.09-.43,22.25,22.25,0,0,1,5.14.36c.21.07.42.13.64.22a2.2,2.2,0,0,1,.56.38c.33.26.67.53,1,.82a6.07,6.07,0,0,1,1.54,2.08,12.45,12.45,0,0,1,.79,5.05h0a12.17,12.17,0,0,0-1-4.94,5.89,5.89,0,0,0-1.52-1.95c-.32-.27-.66-.52-1-.78a2.13,2.13,0,0,0-.5-.31c-.18-.07-.38-.12-.57-.18a32.43,32.43,0,0,0-5-.25l-5.1,0Z"/><path class="cls-2" d="M246.24,63.85A7.34,7.34,0,0,1,248.05,65a7.85,7.85,0,0,1,1.44,1.6,8.76,8.76,0,0,1,1,1.94,9.33,9.33,0,0,1,.48,2.09h0a12.08,12.08,0,0,1,.2,2,4.45,4.45,0,0,1-.32,2l-.05,0a4.3,4.3,0,0,0,.19-1.92,12.52,12.52,0,0,0-.31-1.93h0a9,9,0,0,0-.56-2,8.76,8.76,0,0,0-1-1.79,14.49,14.49,0,0,0-2.85-3Z"/><path class="cls-2" d="M240.83,64.65a21.14,21.14,0,0,1,6.2,1.77,15.6,15.6,0,0,1,5.22,3.81c.35.42.67.86,1,1.3s.57.94.79,1.43q.69,1.46,1.26,3A23.83,23.83,0,0,1,256.2,79a10.11,10.11,0,0,1,.27,3.2h-.05a10,10,0,0,0-.37-3.16,25,25,0,0,0-1-3A18.37,18.37,0,0,0,252,70.5a17.2,17.2,0,0,0-5.13-3.63,29.83,29.83,0,0,0-6-2.17Z"/><path class="cls-2" d="M244.62,69A14.1,14.1,0,0,1,249,70.6a18.67,18.67,0,0,1,3.79,2.84,21.54,21.54,0,0,1,3,3.69c.46.64.79,1.36,1.2,2s.67,1.43,1,2.14v0c.11,2,.15,3.9.07,5.86,0,1-.11,2-.24,2.92a10.72,10.72,0,0,1-.69,2.84l0,0a10.61,10.61,0,0,0,.62-2.84c.09-1,.15-1.94.16-2.91,0-1.94-.05-3.89-.2-5.83l0,.06c-.35-.7-.68-1.41-1.05-2.09s-.75-1.36-1.22-2a25.89,25.89,0,0,0-3-3.56,22.93,22.93,0,0,0-3.64-2.86A16.32,16.32,0,0,0,244.61,69Z"/></g><g id="nose_copy" data-name="nose copy"><path class="cls-3" d="M232.19,50.81s-5.53-2.67-6.89-2.51-2.81,0-3.09,1.15.92,4,1.64,4,2.76-1.45,3.53-2.26S232.19,50.81,232.19,50.81Z"/><path class="cls-2" d="M220.19,57.49s-1.45.81-1.53,1.19,2.12.35,2.72-.41c0,0,5.36-4.12,7.66-4.3s2.64-1.57,1.49-1.09-5.89,2.83-6.64,3.24A37.9,37.9,0,0,1,220.19,57.49Z"/><path class="cls-3" d="M234.66,49.45s3.27,2.79,4,4.52-.34,2.8,2.22,3.39,3.83,0,4.42.91S240,59.4,240,59.4s.27-1.95-2.45-4.55a31.06,31.06,0,0,0-2.73-2.59c-1.19-1-.64-1.79-1.59-2.81S234.66,49.45,234.66,49.45Z"/><path class="cls-2" d="M234.68,57.13c-.47.25-.85.42-.94.25a.34.34,0,0,1,.21-.49A1.59,1.59,0,0,1,234.68,57.13Z"/><path class="cls-2" d="M231.29,57.09c-.47.25-.85.42-.93.25a.32.32,0,0,1,.21-.49A1.58,1.58,0,0,1,231.29,57.09Z"/><path class="cls-2" d="M225.77,57.27c-.38.38-.7.65-.83.51a.33.33,0,0,1,.07-.53A1.6,1.6,0,0,1,225.77,57.27Z"/><path class="cls-2" d="M229.38,59.47c-.37.38-.69.65-.82.51a.33.33,0,0,1,.06-.53A1.59,1.59,0,0,1,229.38,59.47Z"/><path class="cls-2" d="M224.46,61.6c-.38.37-.7.64-.83.5a.33.33,0,0,1,.07-.53A1.57,1.57,0,0,1,224.46,61.6Z"/><path class="cls-2" d="M231.76,62.77c-.38.37-.7.64-.83.5a.33.33,0,0,1,.07-.53A1.57,1.57,0,0,1,231.76,62.77Z"/><path class="cls-2" d="M234.19,60.15c-.44.3-.8.5-.9.34a.33.33,0,0,1,.16-.51A1.62,1.62,0,0,1,234.19,60.15Z"/><path class="cls-2" d="M238,61c-.44.3-.8.5-.91.34a.33.33,0,0,1,.17-.51A1.62,1.62,0,0,1,238,61Z"/><path class="cls-2" d="M236.63,63.85c-.44.3-.64.39-.74.23a.33.33,0,0,1,.17-.51C236.31,63.51,236.63,63.85,236.63,63.85Z"/><path class="cls-2" d="M234.35,66.59c-.44.3-.63.4-.73.24a.33.33,0,0,1,.16-.51C234,66.25,234.35,66.59,234.35,66.59Z"/><path class="cls-2" d="M228.45,65.67c-.44.3-.63.39-.73.23a.33.33,0,0,1,.16-.51C228.13,65.32,228.45,65.67,228.45,65.67Z"/></g><g id="Eye_copy-2" data-name="Eye copy"><path class="cls-2" d="M177.72,68.49s1,4.15,0,5.68-2.87,3.77-5.3,3.57-4.15.26-4.59-1.65-1.34-6.45-1.22-7.6,2.24-3.64,4-3.7,4.85,1.59,5.49,2A12.87,12.87,0,0,1,177.72,68.49Z"/><path class="cls-2" d="M179.19,68.55a34.86,34.86,0,0,1,.89,3.52,11,11,0,0,1,.21,1.81,2.79,2.79,0,0,1-.56,1.72,11.3,11.3,0,0,1-5.84,4.18,18.71,18.71,0,0,1-3.52,1,7.64,7.64,0,0,1-1.85.09,10.3,10.3,0,0,1-1.81-.34,28.45,28.45,0,0,1-3.42-1.25,9.55,9.55,0,0,1-1.68-.74,10.78,10.78,0,0,1-1.5-1.08l-.09-.07,0-.11,1.39-6.92a22.6,22.6,0,0,1,1-3.4,9.8,9.8,0,0,1,.81-1.62,2.88,2.88,0,0,1,.64-.72l.72-.51a24.65,24.65,0,0,1,3-1.87,5,5,0,0,1,1.76-.54,7.64,7.64,0,0,1,1.8.19,16.5,16.5,0,0,1,3.4,1A28.42,28.42,0,0,1,177.51,65h0l.88.82h0Zm-.05,0-.83-2.71v0l-.9-.8h0a27.27,27.27,0,0,0-2.92-1.93,15.81,15.81,0,0,0-3.35-.92,7.65,7.65,0,0,0-1.7-.14,4.54,4.54,0,0,0-1.57.55,28.52,28.52,0,0,0-3,1.84l-.72.51a2.52,2.52,0,0,0-.51.6,8.67,8.67,0,0,0-.77,1.52,25.73,25.73,0,0,0-1.05,3.33l-1.46,6.89-.06-.19a11.17,11.17,0,0,0,1.43,1.05,9.65,9.65,0,0,0,1.63.74,28.16,28.16,0,0,0,3.38,1.27c2.31.81,4.75.13,7-.63a11.11,11.11,0,0,0,5.83-4c.81-1,.55-2.3.36-3.46A30.61,30.61,0,0,0,179.14,68.56Z"/><path class="cls-2" d="M176.61,66.55s-4-2.25-5.06-2.21-2.13-.3-3.45,1.11a9.42,9.42,0,0,0-2.85,4.64,60.73,60.73,0,0,0-.64,6.51A6.08,6.08,0,0,0,167,77.76a21.43,21.43,0,0,0,5.39.45,21.65,21.65,0,0,0,5.2-1.36c.47-.21-4.17,2.81-6.49,2.64s-3.34-.13-5-1.06-2-1.28-2-1.41-.09-1.62,0-3.87.81-5.45,2-6.55,3.15-2.86,4-2.94a25.25,25.25,0,0,1,4.12.34,19.77,19.77,0,0,1,4.26,1.83l1.27,4.37s-2-1.31-2.34-2.2A9.81,9.81,0,0,0,176.61,66.55Z"/></g><g id="Ear_copy" data-name="Ear copy"><path class="cls-4" d="M138.78,85.15s-.12-2.81-1.34-3.45-3.44-1-3.7,0-1.4,2.87-.76,3.45a24.48,24.48,0,0,0,3.63,2.55,13.81,13.81,0,0,0,2.17,1.15"/></g><g id="Layer_11_copy" data-name="Layer 11 copy"><path class="cls-5" d="M172.55,65.68s2,1.41,2,2.27a17,17,0,0,1,.19,3.62,29.72,29.72,0,0,1-.57,3.94c-.35,1,.1,1.4-1.85,1.47s-3,.29-3.45-1.18-1.47-3.43-1.5-4.83-.19-2.93.16-3.53,2.27-2.53,2.78-2.53A10.52,10.52,0,0,1,172.55,65.68Z"/></g></g></svg>