<svg xmlns="http://www.w3.org/2000/svg" viewBox="0 0 292.41 248.17"><defs><style>.cls-1,.cls-3{fill:#fff;}.cls-1,.cls-4{stroke:#231f20;stroke-miterlimit:10;}.cls-2,.cls-5{fill:#231f20;}.cls-4{fill:none;stroke-width:0.25px;}.cls-5{opacity:0.8;}</style></defs><title>Seals_Icons</title><g id="Sea_Lying_Down_Left" data-name="Sea Lying Down Left"><g id="body_copy_2" data-name="body copy 2"><path class="cls-1" d="M287.69,147.13a6.73,6.73,0,0,0-1.89,0c-1.4.13-1.15,1-2.1.48s-1.18-1.47-2.05-2.05a27.52,27.52,0,0,0-4.11-1.56c-1-.38-.54.22-1.57-.45a59.89,59.89,0,0,0-7.43-3.57,32.78,32.78,0,0,0-6.23,0c-2,.13-9.09.35-10.34.41a6.11,6.11,0,0,1-3.41-.73c-1.18-.61-3-2.27-6.19-2.68s-5.17-.35-6.86-.93-2.4-1.56-3.87-2.52-7.85-5.52-10.53-6.76-11.14-5.27-13.43-6-12.51-4.7-15.51-5.24-11.65-3.09-14.59-3.38-18.73-3.89-20.36-4.18-15.48-2.78-18.61-3.19-10.85-1.31-15-1.54-8,.07-10.24-.47-10.19-3.45-12.29-4.34-7-3.71-10-5.46S82,86.68,79.51,85.4s-6-3.19-9.64-3.41-5.81-.73-10.37.8-6.32,2.36-8,3.57-2.9,3-5.13,5.14-3.71,3.67-5.94,4.31-3.73.89-4.28,1.66a19.65,19.65,0,0,0-1.53,2.2,3.21,3.21,0,0,0,0,3.06c.67,1.18,1.25,2.91,2.75,3.51s3,.32,4.18.8,4.43,1.57,6.22,2.14a17.79,17.79,0,0,0,5.39.67c1.38,0,7,1.66,8.43,2.14s6.64,2.71,8.36,4.34A50.86,50.86,0,0,1,77.56,126c1.91,3.48,9.51,12.29,11,13.6s5.9,3.7,6.1,4.69-.26,3,.6,4.15,4.76,5.93,7.66,7.46,5.27,3.83,8.65,3.77,8-.1,9.19-.61,2.14-.44,2.17-1.72,0-1.63,0-2.58.13-1.35.32-1.35-.86-.35-.86-.35-.74-.47.7-.54a19.47,19.47,0,0,1,4.24.67c.1,0,8.94,2.14,13.41,2.68s16.69,1.41,20.74,1.57,26.81-.51,29.36-.67,27.61-.55,30.32-.71a59.34,59.34,0,0,0,8-1.11c2.08-.45,2.75-1.41,3.9-1s3.06,1.82,4.4,2.36,2.17,1.34,4.09,1.56a23.32,23.32,0,0,1,5.26.9c2.49.73,4.63,1.37,7.76,2s7.21,1.37,9.32,1.18,3.09-.1,3.6-1.12a7,7,0,0,0,1.15-3.83c-.16-1.43-.57-1.66-.57-1.66l-.54.29a1.39,1.39,0,0,1-.29-.8c0-.38.92-.28,1.95.19s7,.58,9.73.58,5.74-.38,6.83-1.28,2.94-2.65,3-3.67.29-2.26-.35-2.49-.93,0-1-.19A3.44,3.44,0,0,1,287.69,147.13Z"/></g><g id="eye_copy" data-name="eye copy"><path class="cls-2" d="M49.69,91.26s1.66,1,1.76,1.63a3.29,3.29,0,0,1-.19,2.43c-.53.87-1.19,1.59-1.81,1.19s-1.15-.4-1.23-1.11a5,5,0,0,1-.11-2.06C48.32,93,48.84,91.15,49.69,91.26Z"/><g id="Layer_19_copy" data-name="Layer 19 copy"><path class="cls-3" d="M51.05,92.34s-.9.21-1,.75A16.67,16.67,0,0,0,49.69,95c0,.34-.24-.43-.41-1s-.17-.68,0-1,.79-1,1.13-1S50.92,91.85,51.05,92.34Z"/></g><path class="cls-4" d="M51.39,90.64A3.33,3.33,0,0,1,52.9,93.5c-.09,1.9-.24,3-1.3,3.5s-1.91.87-2.89.19-1.26-.57-1.26-1.51,0-2.89.45-3.49.64-1.3,1.57-1.55A4.15,4.15,0,0,1,51.39,90.64Z"/><path class="cls-4" d="M51.39,91.66a2,2,0,0,1,.76,1.51A6.58,6.58,0,0,1,52,95.64,2.65,2.65,0,0,1,50.45,97a3.41,3.41,0,0,1-2.23-.51,6.38,6.38,0,0,1-.45-2.75,4.84,4.84,0,0,1,.83-2.06,1.75,1.75,0,0,1,1.58-.6A3.23,3.23,0,0,1,51.39,91.66Z"/></g><g id="Layer_21_copy" data-name="Layer 21 copy"><path class="cls-4" d="M37.79,97.57A9.93,9.93,0,0,0,35.56,99"/><path class="cls-2" d="M43.09,107s5.71-1.72,6.06-1.69,1.48.42.66,1-4.42.7-4.52.67S43.09,107,43.09,107Z"/><path class="cls-2" d="M39.64,102.22s.48-.2.5,0,0,.29-.25.23a1.87,1.87,0,0,1-.33-.15"/><path class="cls-2" d="M38.17,102.11s.34-.16.36,0-.05.29-.25.22-.21-.08-.21-.08"/><path class="cls-2" d="M38.17,103.75s.34-.15.36,0-.05.29-.25.23-.21-.09-.21-.09"/><path class="cls-2" d="M40.15,103.88s.39,0,.31.21-.17.23-.32.09S40,104,40,104"/><path class="cls-2" d="M38.7,105s.38,0,.3.21-.17.23-.32.09-.15-.17-.15-.17"/><path class="cls-2" d="M37.2,103.58s.16,0,.11.12-.08.15-.16.12a.12.12,0,0,1-.08-.11Z"/><path class="cls-2" d="M36.89,102.1s.16,0,.11.12-.08.15-.16.12a.12.12,0,0,1-.08-.11Z"/><path class="cls-2" d="M36.46,100.92s.16,0,.1.12-.07.15-.15.12a.14.14,0,0,1-.09-.11Z"/><path class="cls-2" d="M37.44,100.92s-.1-.12,0-.15.17,0,.19,0a.14.14,0,0,1-.05.14Z"/><path class="cls-5" d="M36.1,103.54s-.11-.12,0-.15.17,0,.19,0a.14.14,0,0,1,0,.14Z"/><path class="cls-5" d="M35.83,100.62s-.1-.13,0-.16.17,0,.19.06a.13.13,0,0,1-.05.13Z"/><path class="cls-5" d="M36.79,100.15s-.11-.12,0-.15.17,0,.19,0a.16.16,0,0,1,0,.14Z"/></g><g id="Layer_22_copy_2" data-name="Layer 22 copy 2"><path class="cls-2" d="M40.15,105.11a4,4,0,0,1-.48,1.09,2.6,2.6,0,0,0-.33,1.12h0a2.37,2.37,0,0,1,.18-1.2,2,2,0,0,1,.64-1Z"/><path class="cls-2" d="M39.74,103.84c-.58.52-1.16,1-1.7,1.51a3,3,0,0,0-1,2h0a3,3,0,0,1,.84-2.1,4.73,4.73,0,0,1,1.83-1.4Z"/><path class="cls-2" d="M36.46,103.84c-.32.24-.63.46-.92.71a8.72,8.72,0,0,0-.87.74,3.25,3.25,0,0,0-1,2h0a2.9,2.9,0,0,1,.2-1.16,4.45,4.45,0,0,1,2.55-2.34Z"/><path class="cls-2" d="M35.08,102.59a3.08,3.08,0,0,0-.7.07.89.89,0,0,0-.55.3,3.4,3.4,0,0,0-.54,1.31h0a3,3,0,0,1,.4-1.42.89.89,0,0,1,.67-.42,1.25,1.25,0,0,1,.74.14Z"/><path class="cls-4" d="M59.14,90.8a3.11,3.11,0,0,0-.76,1.47,7.44,7.44,0,0,0,.38,2.1,1.61,1.61,0,0,0,1.09-1.31A5.56,5.56,0,0,0,59.14,90.8Z"/><path class="cls-2" d="M112.34,149.35c.72.22,1.38.52,2.07.77s1.37.5,2.08.69a12.82,12.82,0,0,0,2.14.3,8.32,8.32,0,0,0,2.17-.1v0a5.61,5.61,0,0,1-2.19.33,9.63,9.63,0,0,1-2.19-.36,21.39,21.39,0,0,1-2.07-.77c-.67-.27-1.34-.6-2-.86Z"/><path class="cls-2" d="M111.64,152.6a9.83,9.83,0,0,1,2.9.42c.94.28,1.85.64,2.8.85a16.27,16.27,0,0,0,2.88.31,8.21,8.21,0,0,0,2.88-.27v0a6.81,6.81,0,0,1-2.89.49,12.58,12.58,0,0,1-2.93-.37c-1-.24-1.86-.62-2.78-.92a9.67,9.67,0,0,0-2.86-.51Z"/><path class="cls-2" d="M116.57,156.69l3.09-.09a12.68,12.68,0,0,0,1.52-.08,2,2,0,0,0,1.34-.56h0a1.73,1.73,0,0,1-1.32.8,7.42,7.42,0,0,1-1.56,0l-3.09-.09Z"/><path class="cls-2" d="M246.18,149.73l4.64.72c1.54.25,3.1.51,4.63.7a20.38,20.38,0,0,1,4.64,1,14.21,14.21,0,0,0,2.18.55,8.38,8.38,0,0,1,2.35.3l0,.1a21.55,21.55,0,0,0-2.33.3,9.22,9.22,0,0,1-2.44-.28c-1.56-.34-3-1-4.5-1.17-3.1-.6-6.13-1.35-9.17-2.11Z"/><path class="cls-2" d="M249.67,154.42c2.21-.33,4.42-.62,6.65-.83a25.31,25.31,0,0,1,3.33-.23,30.6,30.6,0,0,0,3.28-.18l0,.09a7.43,7.43,0,0,1-3.25,1.09c-1.17.12-2.23,0-3.35,0l-6.69.13Z"/><path class="cls-2" d="M254.17,158.09c1.81-.27,3.61-.56,5.36-1a12.65,12.65,0,0,0,2.36-.89,23.9,23.9,0,0,1,2.4-1.32l.07.07a8.5,8.5,0,0,1-1.89,2.07,6.15,6.15,0,0,1-2.79.86,35.06,35.06,0,0,1-5.5.31Z"/><path class="cls-2" d="M261.73,159.05c.81-.43,1.61-.88,2.38-1.36a8.83,8.83,0,0,0,1.08-.79c.27-.31.56-.72.88-1l0,0a9.19,9.19,0,0,1-.72,1.19,5.18,5.18,0,0,1-1.16.79c-.8.45-1.63.85-2.46,1.22Z"/><path class="cls-2" d="M277.07,144.09l3.64,3h0v0a2.77,2.77,0,0,0,.56.67,1,1,0,0,0,.8.26v0a.94.94,0,0,1-.94-.11,2,2,0,0,1-.64-.72l0,0-3.5-3.21Z"/><path class="cls-2" d="M263.18,147a30,30,0,0,1,7.45.43c2.45.46,4.89,1,7.29,1.61v0c-2.47-.38-4.9-.88-7.33-1.44a32.3,32.3,0,0,0-7.41-.6Z"/><path class="cls-2" d="M266.92,140.34a23.78,23.78,0,0,1,4.43,1.69,13.44,13.44,0,0,1,2.06,1.22,6.25,6.25,0,0,1,1.73,1.71,26.29,26.29,0,0,0,2.66,3.85,10.28,10.28,0,0,0,1.81,1.45c.66.43,1.33.84,2,1.24l-.16.12a5.53,5.53,0,0,1,.12-2.65,11.82,11.82,0,0,1,.66-1.15,1.18,1.18,0,0,1,1.21-.4v.05a1.14,1.14,0,0,0-1.14.4c-.23.36-.41.78-.61,1.15a5.4,5.4,0,0,0,0,2.56l0,.22-.21-.11c-.69-.37-1.37-.77-2-1.19a10.24,10.24,0,0,1-1.91-1.45,27.27,27.27,0,0,1-2.81-3.83,6.92,6.92,0,0,0-1.63-1.56,18.14,18.14,0,0,0-2-1.24,42.33,42.33,0,0,0-4.24-2Z"/><path class="cls-2" d="M230.12,140.85c1.62.86,3.26,1.66,4.94,2.37a21.57,21.57,0,0,0,2.55.92,8.67,8.67,0,0,0,2.65.3c3.64,0,7.31-.15,11,0,1.82.1,3.64-.05,5.5.19a5.33,5.33,0,0,1,1.35.38c.44.18.83.45,1.22.64a18.52,18.52,0,0,0,2.57.88,4.65,4.65,0,0,1,2.35,1.46c.52.78,1,1.51,1.59,2.24a10.57,10.57,0,0,1,1.45,2.33,3.29,3.29,0,0,1,.14.68,2.4,2.4,0,0,0,.21.64,2.76,2.76,0,0,0,.88,1l0,.05a2.82,2.82,0,0,1-.91-1,2.54,2.54,0,0,1-.24-.65,2.76,2.76,0,0,0-.14-.66,9.9,9.9,0,0,0-1.48-2.28c-.57-.71-1.12-1.47-1.63-2.2a4.34,4.34,0,0,0-2.26-1.35,19.56,19.56,0,0,1-2.62-.86c-.43-.21-.81-.45-1.22-.62a5.15,5.15,0,0,0-1.28-.34c-1.78-.2-3.63,0-5.46-.11-3.65-.07-7.29.16-11,.1-.46,0-.91,0-1.38-.08a7.7,7.7,0,0,1-1.38-.31,19,19,0,0,1-2.57-1,45,45,0,0,1-4.82-2.65Z"/></g></g></svg>