<svg id="Sea_Lying_Down_Right" data-name="Sea Lying Down Right" xmlns="http://www.w3.org/2000/svg" viewBox="0 0 291.76 248.17"><defs><style>.cls-1,.cls-3{fill:#fff;}.cls-1,.cls-4{stroke:#231f20;stroke-miterlimit:10;}.cls-2,.cls-5{fill:#231f20;}.cls-4{fill:none;stroke-width:0.25px;}.cls-5{opacity:0.8;}</style></defs><title>Seals_Icons</title><g id="body"><path class="cls-1" d="M13.17,147.13a6.63,6.63,0,0,1,1.88,0c1.4.13,1.15,1,2.11.48s1.18-1.47,2-2.05A27.64,27.64,0,0,1,23.32,144c1-.38.54.22,1.56-.45A60,60,0,0,1,32.32,140a32.67,32.67,0,0,1,6.22,0c2,.13,9.1.35,10.34.41a6.16,6.16,0,0,0,3.42-.73c1.18-.61,3-2.27,6.19-2.68s5.17-.35,6.86-.93,2.39-1.56,3.86-2.52,7.85-5.52,10.53-6.76,11.14-5.27,13.44-6,12.51-4.7,15.51-5.24,11.65-3.09,14.58-3.38S142,108.26,143.64,108s15.47-2.78,18.6-3.19,10.85-1.31,15-1.54,8,.07,10.25-.47,10.18-3.45,12.29-4.34,7-3.71,10-5.46,9.06-6.29,11.55-7.57,6-3.19,9.64-3.41,5.81-.73,10.37.8,6.32,2.36,8,3.57,2.9,3,5.14,5.14,3.7,3.67,5.93,4.31,3.74.89,4.28,1.66a19.65,19.65,0,0,1,1.53,2.2,3.21,3.21,0,0,1,0,3.06c-.67,1.18-1.24,2.91-2.74,3.51s-3,.32-4.18.8-4.44,1.57-6.23,2.14a17.75,17.75,0,0,1-5.39.67c-1.37,0-7,1.66-8.43,2.14s-6.63,2.71-8.36,4.34A50.46,50.46,0,0,0,223.3,126c-1.92,3.48-9.52,12.29-11,13.6s-5.9,3.7-6.09,4.69.25,3-.61,4.15-4.75,5.93-7.66,7.46-5.26,3.83-8.65,3.77-8-.1-9.19-.61-2.14-.44-2.17-1.72,0-1.63,0-2.58-.12-1.35-.32-1.35.87-.35.87-.35.73-.47-.71-.54a19.71,19.71,0,0,0-4.24.67c-.1,0-8.94,2.14-13.4,2.68s-16.7,1.41-20.75,1.57-26.81-.51-29.36-.67-27.61-.55-30.32-.71a59.57,59.57,0,0,1-8-1.11c-2.08-.45-2.75-1.41-3.89-1s-3.07,1.82-4.41,2.36-2.17,1.34-4.08,1.56a23.31,23.31,0,0,0-5.27.9c-2.49.73-4.63,1.37-7.75,2S39.08,162.19,37,162s-3.1-.1-3.61-1.12a7.12,7.12,0,0,1-1.15-3.83c.16-1.43.58-1.66.58-1.66l.54.29a1.33,1.33,0,0,0,.28-.8c0-.38-.92-.28-1.94.19s-7,.58-9.74.58-5.74-.38-6.83-1.28-2.93-2.65-3-3.67-.28-2.26.36-2.49.92,0,.95-.19A3.49,3.49,0,0,0,13.17,147.13Z"/></g><g id="eye"><path class="cls-2" d="M251.17,91.26s-1.66,1-1.77,1.63a3.34,3.34,0,0,0,.19,2.43c.53.87,1.19,1.59,1.81,1.19s1.15-.4,1.24-1.11a5.15,5.15,0,0,0,.1-2.06C252.53,93,252,91.15,251.17,91.26Z"/><g id="Layer_19" data-name="Layer 19"><path class="cls-3" d="M249.81,92.34s.89.21,1,.75.36,1.53.36,1.87.23-.43.4-1,.17-.68,0-1-.79-1-1.13-1S249.93,91.85,249.81,92.34Z"/></g><path class="cls-4" d="M249.47,90.64A3.33,3.33,0,0,0,248,93.5c.09,1.9.25,3,1.31,3.5s1.91.87,2.89.19,1.25-.57,1.25-1.51,0-2.89-.45-3.49-.63-1.3-1.57-1.55A4.1,4.1,0,0,0,249.47,90.64Z"/><path class="cls-4" d="M249.47,91.66a2,2,0,0,0-.77,1.51,7,7,0,0,0,.17,2.47A2.65,2.65,0,0,0,250.4,97a3.44,3.44,0,0,0,2.24-.51,6.39,6.39,0,0,0,.44-2.75,4.71,4.71,0,0,0-.83-2.06,1.74,1.74,0,0,0-1.57-.6A3.14,3.14,0,0,0,249.47,91.66Z"/></g><g id="Layer_21" data-name="Layer 21"><path class="cls-4" d="M263.06,97.57A10,10,0,0,1,265.3,99"/><path class="cls-2" d="M257.76,107s-5.71-1.72-6.06-1.69-1.47.42-.66,1,4.43.7,4.52.67S257.76,107,257.76,107Z"/><path class="cls-2" d="M261.21,102.22s-.48-.2-.49,0,0,.29.24.23a1.87,1.87,0,0,0,.33-.15"/><path class="cls-2" d="M262.69,102.11s-.35-.16-.36,0,0,.29.24.22.21-.08.21-.08"/><path class="cls-2" d="M262.69,103.75s-.35-.15-.36,0,0,.29.24.23.21-.09.21-.09"/><path class="cls-2" d="M260.7,103.88s-.38,0-.3.21.17.23.32.09.15-.17.15-.17"/><path class="cls-2" d="M262.16,105s-.38,0-.31.21.17.23.32.09.15-.17.15-.17"/><path class="cls-2" d="M263.65,103.58s-.16,0-.1.12.07.15.15.12a.14.14,0,0,0,.09-.11Z"/><path class="cls-2" d="M264,102.1s-.16,0-.1.12.07.15.15.12a.14.14,0,0,0,.09-.11Z"/><path class="cls-2" d="M264.39,100.92s-.16,0-.1.12.07.15.15.12a.14.14,0,0,0,.09-.11Z"/><path class="cls-2" d="M263.41,100.92s.1-.12,0-.15-.17,0-.19,0a.14.14,0,0,0,0,.14Z"/><path class="cls-5" d="M264.76,103.54s.1-.12,0-.15-.17,0-.19,0a.14.14,0,0,0,.05.14Z"/><path class="cls-5" d="M265,100.62s.1-.13,0-.16-.16,0-.18.06a.13.13,0,0,0,0,.13Z"/><path class="cls-5" d="M264.07,100.15s.1-.12,0-.15-.17,0-.19,0a.15.15,0,0,0,.05.14Z"/></g><g id="Layer_22" data-name="Layer 22"><path class="cls-2" d="M260.72,105.1a2.06,2.06,0,0,1,.65,1,2.48,2.48,0,0,1,.17,1.2h0a2.61,2.61,0,0,0-.34-1.12,4,4,0,0,1-.48-1.09Z"/><path class="cls-2" d="M261.13,103.82a4.59,4.59,0,0,1,1.83,1.4,2.92,2.92,0,0,1,.84,2.1h0a3,3,0,0,0-1-2c-.54-.53-1.12-1-1.69-1.51Z"/><path class="cls-2" d="M264.41,103.82a4.1,4.1,0,0,1,1.92,1.34,4.33,4.33,0,0,1,.63,1,3.08,3.08,0,0,1,.2,1.16h0a3.19,3.19,0,0,0-.95-2,8.61,8.61,0,0,0-.86-.74c-.3-.25-.61-.47-.92-.71Z"/><path class="cls-2" d="M265.77,102.56a1.27,1.27,0,0,1,.75-.14.91.91,0,0,1,.67.42,3.15,3.15,0,0,1,.39,1.42h0A3.25,3.25,0,0,0,267,103a.86.86,0,0,0-.54-.3,3.14,3.14,0,0,0-.7-.07Z"/><path class="cls-4" d="M241.71,90.8a3.19,3.19,0,0,1,.77,1.47,7.72,7.72,0,0,1-.39,2.1A1.59,1.59,0,0,1,241,93.06,5.6,5.6,0,0,1,241.71,90.8Z"/><path class="cls-2" d="M188.5,149.37c-.66.26-1.33.59-2,.86a21.39,21.39,0,0,1-2.07.77,9.46,9.46,0,0,1-2.19.36,5.56,5.56,0,0,1-2.18-.33v0a8.34,8.34,0,0,0,2.17.1,12.94,12.94,0,0,0,2.15-.3c.7-.19,1.39-.44,2.07-.69s1.36-.55,2.07-.77Z"/><path class="cls-2" d="M189.21,152.63a9.62,9.62,0,0,0-2.86.51c-.92.3-1.83.68-2.79.92a12.49,12.49,0,0,1-2.92.37,6.75,6.75,0,0,1-2.89-.49v0a8.16,8.16,0,0,0,2.87.27,16.48,16.48,0,0,0,2.89-.31c.94-.21,1.85-.57,2.79-.85a9.83,9.83,0,0,1,2.9-.42Z"/><path class="cls-2" d="M184.28,156.71l-3.08.09a7.41,7.41,0,0,1-1.56,0,1.71,1.71,0,0,1-1.32-.8h0a2,2,0,0,0,1.34.56,12.4,12.4,0,0,0,1.51.08l3.09.09Z"/><path class="cls-2" d="M54.7,149.83c-3.05.76-6.08,1.51-9.18,2.11-1.54.21-2.93.83-4.5,1.17a9.17,9.17,0,0,1-2.44.28,21.55,21.55,0,0,0-2.33-.3l0-.1a8.4,8.4,0,0,1,2.36-.3,14.81,14.81,0,0,0,2.18-.55,20.18,20.18,0,0,1,4.63-1c1.54-.19,3.09-.45,4.63-.7l4.65-.72Z"/><path class="cls-2" d="M51.17,154.52l-6.68-.13c-1.13,0-2.19.09-3.35,0a7.47,7.47,0,0,1-3.26-1.09l0-.09a30.6,30.6,0,0,0,3.28.18,25.31,25.31,0,0,1,3.33.23c2.23.21,4.44.5,6.65.83Z"/><path class="cls-2" d="M46.68,158.19a35.12,35.12,0,0,1-5.51-.31,6.18,6.18,0,0,1-2.79-.86A8.71,8.71,0,0,1,36.49,155l.07-.07A25.23,25.23,0,0,1,39,156.2a12.13,12.13,0,0,0,2.36.89c1.74.44,3.55.73,5.35,1Z"/><path class="cls-2" d="M39.11,159.08c-.84-.37-1.67-.77-2.47-1.22a5.12,5.12,0,0,1-1.15-.79,8.27,8.27,0,0,1-.73-1.19l0,0c.32.32.61.73.89,1a8.12,8.12,0,0,0,1.08.79c.77.48,1.56.93,2.37,1.36Z"/><path class="cls-2" d="M23.8,144.11l-3.5,3.21,0,0a2.14,2.14,0,0,1-.65.72.92.92,0,0,1-.93.11v0a1,1,0,0,0,.8-.26,2.77,2.77,0,0,0,.56-.67l0,0h0l3.65-3Z"/><path class="cls-2" d="M37.68,147a32.39,32.39,0,0,0-7.42.6c-2.42.56-4.86,1.06-7.32,1.44v0c2.41-.64,4.85-1.15,7.3-1.61a30,30,0,0,1,7.45-.43Z"/><path class="cls-2" d="M34,140.39a43.4,43.4,0,0,0-4.24,2,18,18,0,0,0-2,1.24,7,7,0,0,0-1.64,1.56,26.5,26.5,0,0,1-2.81,3.83,10.17,10.17,0,0,1-1.9,1.45c-.67.42-1.35.82-2,1.19l-.2.11,0-.22a5.4,5.4,0,0,0,0-2.56c-.2-.37-.38-.79-.61-1.15a1.14,1.14,0,0,0-1.14-.4v-.05a1.21,1.21,0,0,1,1.22.4c.26.37.43.75.66,1.15a5.66,5.66,0,0,1,.12,2.65l-.17-.12c.68-.4,1.35-.81,2-1.24a10.28,10.28,0,0,0,1.81-1.45A25.53,25.53,0,0,0,25.71,145a6.39,6.39,0,0,1,1.73-1.71A13.94,13.94,0,0,1,29.5,142a23.61,23.61,0,0,1,4.44-1.69Z"/><path class="cls-2" d="M70.75,140.89a45.84,45.84,0,0,1-4.81,2.65,19.18,19.18,0,0,1-2.58,1,7.78,7.78,0,0,1-1.37.31c-.47,0-.93.06-1.39.08-3.67.06-7.32-.17-11-.1-1.83.08-3.68-.09-5.46.11a5.11,5.11,0,0,0-1.29.34c-.41.17-.78.41-1.21.62a20,20,0,0,1-2.62.86,4.41,4.41,0,0,0-2.27,1.35c-.51.73-1.06,1.49-1.62,2.2a9.9,9.9,0,0,0-1.48,2.28,3.35,3.35,0,0,0-.15.66,3,3,0,0,1-.23.65,2.85,2.85,0,0,1-.92,1l0-.05a2.83,2.83,0,0,0,.87-1,2.4,2.4,0,0,0,.21-.64,5.47,5.47,0,0,1,.14-.68,10.25,10.25,0,0,1,1.46-2.33c.56-.73,1.07-1.46,1.59-2.24A4.59,4.59,0,0,1,39,146.53a17.66,17.66,0,0,0,2.57-.88c.39-.19.79-.46,1.22-.64a5.52,5.52,0,0,1,1.36-.38c1.85-.24,3.67-.09,5.49-.19,3.67-.15,7.33,0,11,0a8.67,8.67,0,0,0,2.65-.3,21.72,21.72,0,0,0,2.56-.92c1.67-.71,3.32-1.51,4.93-2.37Z"/></g></svg>